HIERARCHY
ROOT pelvis
{
  OFFSET 0 100 0
  CHANNELS 6 Xposition Yposition Zposition Zrotation Xrotation Yrotation
  JOINT pelvis_right_femur
  {
    OFFSET -10.78128 -3.44521 -0.5502486
    CHANNELS 3 Zrotation Xrotation Yrotation
    JOINT right_femur_tibia
    {
      OFFSET -0.8047443 -44.0398 -0.1307829
      CHANNELS 3 Zrotation Xrotation Yrotation
      JOINT right_tibia_foot
      {
        OFFSET 3.006224 -47.83518 -5
        CHANNELS 3 Zrotation Xrotation Yrotation
        End Site
        {
          OFFSET 0 -5 15
        }
      }
    }
  }
  JOINT pelvis_left_femur
  {
    OFFSET 10.78128 -3.44521 -0.5502486
    CHANNELS 3 Zrotation Xrotation Yrotation
    JOINT left_femur_tibia
    {
      OFFSET 0.8047443 -44.0398 -0.1307829
      CHANNELS 3 Zrotation Xrotation Yrotation
      JOINT left_tibia_foot
      {
        OFFSET -4.370144 -48.10324 -4.275266
        CHANNELS 3 Zrotation Xrotation Yrotation
        End Site
        {
          OFFSET 0 -5 15
        }
      }
    }
  }
  JOINT pelvis_spine1
  {
    OFFSET 0 6.468898 -3.129235
    CHANNELS 3 Zrotation Xrotation Yrotation
    JOINT spine1
    {
      OFFSET 0 23.15396 4.99043
      CHANNELS 3 Zrotation Xrotation Yrotation
      JOINT spine2
      {
        OFFSET 0 20.79997 -5.064912
        CHANNELS 3 Zrotation Xrotation Yrotation
        JOINT neck
        {
          OFFSET 0 14.38658 9.616178
          CHANNELS 3 Zrotation Xrotation Yrotation
          End Site
          {
            OFFSET 0 20 0
          }
        }
      }
      JOINT right_manubrium
      {
        OFFSET -5.722621 16.35077 3.967754
        CHANNELS 3 Zrotation Xrotation Yrotation
        JOINT right_clavicle
        {
          OFFSET -13.16364 1.694482 -4.693211
          CHANNELS 3 Zrotation Xrotation Yrotation
          JOINT right_humerus
          {
            OFFSET -28.5034 -0.3100689 -2.792744
            CHANNELS 3 Zrotation Xrotation Yrotation
            JOINT right_radius
            {
              OFFSET -25.15693 0.02248979 -1.271978
              CHANNELS 3 Zrotation Xrotation Yrotation
              End Site
              {
                OFFSET -15 0 0
              }
            }
          }
        }
      }
      JOINT left_manubrium
      {
        OFFSET 5.722621 16.35077 3.967754
        CHANNELS 3 Zrotation Xrotation Yrotation
        JOINT left_clavicle
        {
          OFFSET 13.16364 1.694482 -4.693211
          CHANNELS 3 Zrotation Xrotation Yrotation
          JOINT left_humerus
          {
            OFFSET 29.39168 -1.063119 -2.237045
            CHANNELS 3 Zrotation Xrotation Yrotation
            JOINT left_radius
            {
              OFFSET 24.59957 -0.9528479 0.9047498
              CHANNELS 3 Zrotation Xrotation Yrotation
              End Site
              {
                OFFSET 15 -0 -0
              }
            }
          }
        }
      }
    }
  }
}
MOTION
Frames: 9
Frame Time: 0.0416666666667
37.68264 100.6467 253.9445 2.422138 -8.367045 -1.032582 -1.033865 23.9703 7.957966 -0 21.63511 -0 7.608092 -13.46162 0.2081706 -1.079319 -24.97596 -5.850472 -0 26.11064 -0 -7.32856 -5.946147 19.28154 -1.342125 -0.9318929 10.13017 -2.166158 9.767926 -1.666758 2.661146 21.87261 4.903037 1.505439 -14.64637 7.49044 1.241875 -21.76966 11.12079 80.22761 21.30222 -4.662377 -0 0 27.66541 -26.40118 13.85793 13.75811 4.289025 -13.18189 -3.022202 -94.27255 22.53288 26.96661 0 0 -8.476068 -3.593267 5.879504 17.71949
38.92973 100.5081 260.9704 2.674797 -8.465742 -0.8153383 -1.863518 23.23212 7.495011 -0 28.027 -0 7.999659 -11.63102 -0.4514452 -2.441677 -22.42161 -6.883775 -0 25.59709 -0 -7.217624 -6.424863 18.75826 -1.741811 -1.322588 9.865304 -2.225592 9.495383 -1.702889 2.768429 22.02809 4.88233 1.360175 -14.56027 7.734065 1.391341 -21.10563 10.79312 80.80409 21.27953 -5.172657 -0 0 26.65433 -26.15938 13.78475 13.49195 4.103484 -12.76657 -3.04456 -93.81926 22.87634 26.5039 0 0 -8.007172 -3.621906 5.956468 17.89538
40.17305 100.8785 267.9564 2.971518 -8.742662 -0.2708593 -2.460845 21.1072 6.803273 -0 34.82449 -0 8.122023 -9.825567 -1.474954 -3.781769 -18.72455 -7.802584 -0 25.62866 -0 -7.054208 -7.137162 18.21131 -2.168309 -1.554276 9.380391 -2.201586 9.329055 -1.842776 2.816376 22.29853 4.905283 1.188946 -14.39724 7.988647 1.700481 -20.17839 10.52763 81.70178 21.47091 -6.240832 -0 0 24.90835 -25.71794 13.79261 13.03242 3.945614 -12.71055 -3.139235 -92.93316 23.29525 25.24216 0 0 -8.135438 -3.475061 6.132241 17.82887
41.36985 101.6937 274.7103 3.210096 -9.176592 0.5732679 -2.645065 17.3813 5.916941 -0 41.28262 -0 7.929484 -8.510125 -2.747311 -4.894283 -14.09253 -8.515766 -0 25.47176 -0 -6.833303 -8.160841 17.63056 -2.505471 -1.474361 8.589905 -2.102394 9.24019 -2.127216 2.781334 22.67037 4.9812 0.9750893 -14.15992 8.248826 2.090364 -19.1304 10.34052 82.85286 21.8401 -7.692599 -0 0 22.69634 -25.09426 13.86021 12.44047 3.823078 -13.0467 -3.317482 -91.60311 23.76036 23.1595 0 0 -8.878664 -3.132484 6.411043 17.49177
42.4914 102.7971 281.097 3.359456 -9.634291 1.661808 -2.479943 12.28494 4.959287 -0 46.31127 -0 7.441353 -7.765793 -4.082197 -5.688107 -8.879713 -9.031179 -0 24.75806 -0 -6.598766 -9.416571 17.00016 -2.716572 -1.13023 7.525516 -1.928852 9.168887 -2.584227 2.693721 23.10159 5.092555 0.7352927 -13.86269 8.514152 2.427661 -18.0408 10.17904 84.19032 22.31046 -9.394995 -0 0 20.31359 -24.33413 13.94659 11.78742 3.775948 -13.71255 -3.565196 -89.91219 24.21505 20.3568 0 0 -10.19629 -2.609379 6.785788 16.89134
43.53176 103.9524 287.0894 3.425068 -9.91568 2.925356 -2.143374 6.331937 4.074536 -0 48.59805 -0 6.719783 -7.446763 -5.261733 -6.131243 -3.52642 -9.411671 -0 23.35655 -0 -6.420699 -10.73683 16.30002 -2.823039 -0.6919941 6.292455 -1.678455 9.036019 -3.229162 2.61859 23.5318 5.202119 0.5074405 -13.52822 8.784234 2.55161 -16.94612 9.954597 85.63715 22.78601 -11.23936 -0 0 18.0599 -23.50023 14.00058 11.14746 3.868513 -14.59158 -3.848325 -88.00355 24.59945 17.01383 0 0 -12.02117 -1.940614 7.244669 16.05165
44.49564 104.9045 292.7549 3.43923 -9.922785 4.29587 -1.804931 0.04929811 3.340924 -0 47.62685 -0 5.819482 -7.402808 -6.202413 -6.277064 1.654507 -9.71588 -0 21.42055 -0 -6.325302 -12.04499 15.52916 -2.880553 -0.2880098 5.014106 -1.363609 8.801521 -4.024942 2.603391 23.91109 5.271379 0.321394 -13.19037 9.042539 2.40383 -15.85549 9.633047 87.1057 23.20232 -13.14913 -0 0 16.05677 -22.63849 13.99254 10.54427 4.129375 -15.59109 -4.126612 -86.00926 24.87428 13.32905 0 0 -14.25852 -1.160696 7.773205 15.00408
45.38826 105.4504 298.238 3.471727 -9.65153 5.701476 -1.642946 -5.99224 2.771074 -0 43.59714 -0 4.780847 -7.517597 -6.950377 -6.258186 6.444216 -9.962573 -0 19.38008 -0 -6.292538 -13.37429 14.71001 -2.976602 0.006230517 3.842133 -1.012831 8.462505 -4.875724 2.679039 24.19318 5.255982 0.2010499 -12.90135 9.250048 2.021344 -14.75961 9.234193 88.48164 23.52378 -15.06423 -0 0 14.25655 -21.77734 13.909 9.947054 4.55332 -16.64301 -4.350683 -84.04845 25.02652 9.528046 0 0 -16.78435 -0.3029238 8.35794 13.78297
46.21498 105.4717 303.7079 3.557151 -9.154258 7.056414 -1.717144 -11.37183 2.317736 -0 37.19866 -0 3.635995 -7.737596 -7.576413 -6.183903 10.72166 -10.144 -0 17.66086 -0 -6.305366 -14.73733 13.88132 -3.156075 0.1712489 2.883161 -0.654444 8.042524 -5.679632 2.847291 24.35952 5.136219 0.1539327 -12.70064 9.37735 1.490657 -13.66011 8.809256 89.68342 23.74773 -16.92427 -0 0 12.56828 -20.92316 13.75273 9.316181 5.102017 -17.69736 -4.484757 -82.21835 25.06475 5.81818 0 0 -19.44737 0.6033568 8.981579 12.43495
